<svg xmlns="http://www.w3.org/2000/svg" version="1.1" xmlns:xlink="http://www.w3.org/1999/xlink" xmlns:svgjs="http://svgjs.dev/svgjs" width="1500" height="1500" viewBox="0 0 1500 1500"><rect width="1500" height="1500" fill="#1068a1"></rect><g transform="matrix(0.3069367710251688,0,0,0.3069367710251688,519.2804391950642,248.78048780487802)"><svg viewBox="0 0 151 328" data-background-color="#1068a1" preserveAspectRatio="xMidYMid meet" height="3258" width="1500" xmlns="http://www.w3.org/2000/svg" xmlns:xlink="http://www.w3.org/1999/xlink"><g id="tight-bounds" transform="matrix(1,0,0,1,0.16955579631638784,0.39999999999997726)"><svg viewBox="0 0 150.66088840736725 327.2" height="327.2" width="150.66088840736725"><g><svg viewBox="0 0 313.37464788732393 680.576" height="327.2" width="150.66088840736725"><g transform="matrix(1,0,0,1,0,353.376)"><svg viewBox="0 0 313.37464788732393 327.2" height="327.2" width="313.37464788732393"><g id="textblocktransform"><svg viewBox="0 0 313.37464788732393 327.2" height="327.2" width="313.37464788732393" id="textblock"><g><svg viewBox="0 0 313.37464788732393 327.2" height="327.2" width="313.37464788732393"><g transform="matrix(1,0,0,1,0,0)"><svg width="313.37464788732393" viewBox="0.75 -35 34 35.5" height="327.2" data-palette-color="#000000"><path d="M16.4-17.7L16.4-17.7 13.75-17.7 13.75-0.95 17-0.95 17 0 0.75 0 0.75-0.95 4-0.95 4-34.05 0.75-34.05 0.75-35 15.85-35Q22.35-35 25.08-34.33 27.8-33.65 28.9-32.7L28.9-32.7Q31.3-30.75 31.3-26.5 31.3-22.25 29.2-20.43 27.1-18.6 22.8-18.25L22.8-18.25 22.8-18.1Q26.85-17.55 28.45-15.7 30.05-13.85 30.05-9.5L30.05-9.5 30.05-6.85Q30.05-4.25 30.33-3.35 30.6-2.45 31.5-2.45 32.4-2.45 32.93-3.28 33.45-4.1 33.9-6.75L33.9-6.75 34.75-6.65Q34.2-2.4 32.83-0.95 31.45 0.5 27.35 0.5 23.25 0.5 21.53-1.43 19.8-3.35 19.8-8.65L19.8-8.65 19.8-12.3Q19.8-15.1 19.07-16.4 18.35-17.7 16.4-17.7ZM15.4-34.05L13.75-34.05 13.75-18.65 15.35-18.65Q18.2-18.65 19.58-20.4 20.95-22.15 20.95-26.1L20.95-26.1 20.95-27.55Q20.95-31.5 19.63-32.77 18.3-34.05 15.4-34.05L15.4-34.05Z" opacity="1" transform="matrix(1,0,0,1,0,0)" fill="#000000" class="wordmark-text-0" data-fill-palette-color="primary" id="text-0"></path></svg></g></svg></g></svg></g></svg></g><g transform="matrix(1,0,0,1,61.768817786411574,0)"><svg viewBox="0 0 189.83701231450078 327.2" height="327.2" width="189.83701231450078"><g><svg xmlns="http://www.w3.org/2000/svg" xmlns:xlink="http://www.w3.org/1999/xlink" version="1.1" x="0" y="0" viewBox="21.679106830508616 1 56.85827385947762 98" enable-background="new 0 0 100 100" xml:space="preserve" height="327.2" width="189.83701231450078" class="icon-icon-0" data-fill-palette-color="accent" id="icon-0"><g fill="#000000" data-fill-palette-color="accent"><path fill-rule="evenodd" clip-rule="evenodd" d="M30.545 28.822C29.38 36.039 30.875 43.672 37.045 47.863 30.758 19.81 45.756 8.664 59.646 1 43.466 24.046 76.542 24.644 78.423 51.13 80.028 73.71 64.507 91.317 46.639 99 46.845 76.175 24.089 73.067 21.801 54.397 20.905 47.094 25.062 33.766 30.545 28.822" fill="#000000" data-fill-palette-color="accent"></path></g></svg></g></svg></g><g></g></svg></g><defs></defs></svg><rect width="150.66088840736725" height="327.2" fill="none" stroke="none" visibility="hidden"></rect></g></svg></g></svg>